<svg xmlns="http://www.w3.org/2000/svg" version="1.1" xmlns:xlink="http://www.w3.org/1999/xlink" width="200" height="200"><svg xmlns="http://www.w3.org/2000/svg" version="1.1" xmlns:xlink="http://www.w3.org/1999/xlink" viewBox="0 0 200 200"><rect width="200" height="200" fill="url('#gradient')"></rect><defs><linearGradient id="SvgjsLinearGradient1008" gradientTransform="rotate(45 0.5 0.5)"><stop offset="0%" stop-color="#ffffff"></stop><stop offset="100%" stop-color="#ffffff"></stop></linearGradient></defs><g><g fill="#faa898" transform="matrix(3.6276323558354653,0,0,3.6276323558354653,9.232220764066085,111.42645372806678)" stroke="#faa898" stroke-width="0.2"><path d="M8.39-10.57L10.05-4.34L11.11-10.57L14.27-10.57L11.78 0L8.99 0L7.25-6.27L5.49 0L2.71 0L0.21-10.57L3.37-10.57L4.41-4.19L6.09-10.57L8.39-10.57ZM18.00-10.57L19.67-4.61L21.43-10.57L24.95-10.57L20.64 1.77L20.46 2.22Q19.54 4.27 17.22 4.27L17.22 4.27Q16.57 4.27 15.86 4.07L15.86 4.07L15.86 1.72L16.29 1.72Q16.98 1.72 17.35 1.52Q17.71 1.32 17.89 0.80L17.89 0.80L18.15 0.10L14.48-10.57L18.00-10.57ZM33.27-10.57L34.93-4.34L36.00-10.57L39.15-10.57L36.66 0L33.88 0L32.13-6.27L30.37 0L27.59 0L25.10-10.57L28.25-10.57L29.30-4.19L30.98-10.57L33.27-10.57ZM42.88-10.57L44.55-4.61L46.31-10.57L49.83-10.57L45.53 1.77L45.34 2.22Q44.42 4.27 42.10 4.27L42.10 4.27Q41.46 4.27 40.74 4.07L40.74 4.07L40.74 1.72L41.17 1.72Q41.87 1.72 42.23 1.52Q42.60 1.32 42.77 0.80L42.77 0.80L43.04 0.10L39.37-10.57L42.88-10.57Z"></path></g></g></svg><style>@media (prefers-color-scheme: light) { :root { filter: none; } }
@media (prefers-color-scheme: dark) { :root { filter: none; } }
</style></svg>